<svg width="38" height="14" viewBox="0 0 38 14" fill="none" xmlns="http://www.w3.org/2000/svg">
<path d="M5.572 7.996V13H8.398V8.068L13.168 0.147999H10.018L7.03 5.224L4.024 0.147999H0.856L5.572 7.996ZM15.9379 2.254V0.147999H13.3819V2.254H15.9379ZM13.3819 3.694V13H15.9379V3.694H13.3819ZM18.2205 0.147999V13H27.3105V10.624H21.0465V0.147999H18.2205ZM37.3504 13V3.694H34.7944V8.572C34.7944 9.52 34.6384 10.204 34.3264 10.624C34.0144 11.032 33.5104 11.236 32.8144 11.236C32.2024 11.236 31.7764 11.05 31.5364 10.678C31.2964 10.294 31.1764 9.718 31.1764 8.95V3.694H28.6204V9.418C28.6204 9.994 28.6684 10.522 28.7644 11.002C28.8724 11.47 29.0524 11.872 29.3044 12.208C29.5564 12.532 29.8984 12.784 30.3304 12.964C30.7744 13.144 31.3384 13.234 32.0224 13.234C32.5624 13.234 33.0904 13.114 33.6064 12.874C34.1224 12.634 34.5424 12.244 34.8664 11.704H34.9204V13H37.3504Z" fill="black"/>
</svg>
